<?xml version="1.0" standalone="no"?>
<!DOCTYPE svg PUBLIC "-//W3C//DTD SVG 20010904//EN"
 "http://www.w3.org/TR/2001/REC-SVG-20010904/DTD/svg10.dtd">
<svg version="1.0" xmlns="http://www.w3.org/2000/svg"
 width="474.000000pt" height="284.000000pt" viewBox="0 0 474.000000 284.000000"
 preserveAspectRatio="xMidYMid meet">
<metadata>
Created by potrace 1.16, written by Peter Selinger 2001-2019
</metadata>
<g transform="translate(0.000000,284.000000) scale(0.100000,-0.100000)"
fill="#000000" stroke="none">
<path d="M6 2833 c-10 -11 -6 -126 7 -163 7 -19 19 -35 27 -35 8 0 20 16 27
35 12 35 12 35 12 6 1 -24 3 -27 16 -16 9 8 15 29 15 56 l0 43 55 16 c30 8 55
20 55 25 0 23 -194 53 -214 33z"/>
<path d="M3588 2824 c-27 -8 -48 -19 -48 -24 0 -5 21 -16 48 -24 45 -14 46
-15 13 -15 -29 -1 -32 -3 -21 -16 7 -8 18 -15 25 -15 25 0 45 -36 45 -83 0
-35 4 -47 15 -47 9 0 15 9 15 25 0 14 4 25 8 25 11 0 37 -30 45 -52 3 -9 18
-22 34 -30 15 -7 34 -26 41 -41 8 -16 24 -32 37 -37 14 -5 30 -18 37 -30 7
-11 22 -20 34 -20 11 0 33 -13 49 -30 16 -16 35 -30 42 -30 7 0 13 -4 13 -10
0 -5 5 -10 12 -10 6 0 20 -7 30 -17 17 -15 18 -15 18 0 0 25 13 21 45 -13 15
-16 32 -27 37 -24 5 4 31 0 56 -7 46 -13 46 -14 17 -19 l-30 -7 42 -11 c23 -7
61 -14 85 -17 151 -15 213 -30 188 -45 -22 -14 20 -27 105 -34 45 -4 88 -4 98
0 16 6 17 34 17 340 l0 334 -552 -1 c-455 0 -561 -3 -600 -15z"/>
<path d="M3500 2810 c-13 -9 -13 -11 0 -20 15 -10 25 0 18 20 -2 6 -8 6 -18 0z"/>
<path d="M160 2744 c0 -14 3 -14 15 -4 8 7 15 14 15 16 0 2 -7 4 -15 4 -8 0
-15 -7 -15 -16z"/>
</g>
</svg>
